<svg id="Layer_1" enable-background="new 0 0 75 60.015" height="512" viewBox="0 0 75 60.015" width="512" xmlns="http://www.w3.org/2000/svg"><g id="Layer_2_1_"><g id="flat"><path d="m16.838 30.613 5.64 4.029c.339.243.746.373 1.163.373h28.359c1.105 0 2-.895 2-2v-26.971c0-.646-.312-1.252-.838-1.627l-5.64-4.029c-.339-.243-.746-.373-1.163-.373h-28.359c-1.105 0-2 .895-2 2v26.971c0 .646.312 1.252.838 1.627z" fill="#a87e6b"/><path d="m54 6.045v26.97c-.003 1.103-.897 1.997-2 2h-28.36c-.218-.001-.434-.038-.64-.11v-29.89h30.71c.191.31.291.666.29 1.03z" fill="#be927c"/><path d="m31 14.015h-3c-1.105 0-2-.895-2-2v-2c0-1.105.895-2 2-2h3c1.105 0 2 .895 2 2v2c0 1.105-.895 2-2 2zm-3-4v2h3v-2z" fill="#374f68"/><path d="m53.71 5.015h-30.71l-6.31-4.51c.362-.318.828-.493 1.31-.49h28.36c.416 0 .821.129 1.16.37l5.64 4.03c.226.157.414.362.55.6z" fill="#d3a997"/><path d="m41.72 5.015h-3.44l-7-5h3.44z" fill="#374f68"/><path d="m16 20.985 7-1v14.92c-.185-.062-.36-.15-.52-.26l-5.64-4.03c-.53-.38-.84-1.98-.84-2.63z" fill="#99705f"/><path d="m39.64 26.015v9h-16c-.111 0-.221-.01-.33-.03-.105-.021-.208-.047-.31-.08v-14.92h9c.416 0 .821.129 1.16.37l5.64 4.03c.527.375.84.983.84 1.63z" fill="#a87e6b"/><path d="m53.71 4.99v.01h-30.71l-6.37-4.44c.307-.271.679-.457 1.08-.54.096-.012.193-.018.29-.02 0 0 4 4.03 6 4.03.26 0 22.91.45 25.81-.05.69-.12-2.68-3.21-3.45-3.98.416 0 .821.129 1.16.37l5.64 4.03c.223.156.41.357.55.59z" fill="#be927c"/><path d="m24 35.015s-1.237-28.985 1-28.985c8 0 28.71-1 28.71-1l-30.71-.03v29.905z" fill="#c49986"/><path d="m23 5v29.905s-1-.15-1-.6v-28.275c0-1.52-4.07-2.47-6-2.83v-1.2c-.004-.548.225-1.071.63-1.44z" fill="#99705f"/><path d="m42.2 41.613 5.641 4.029c.338.242.743.373 1.159.373h24c1.105 0 2-.895 2-2v-22c0-.646-.312-1.252-.838-1.627l-5.64-4.03c-.339-.242-.746-.372-1.163-.372h-24c-1.105 0-2 .895-2 2v22c.001.646.314 1.252.841 1.627z" fill="#a87e6b"/><path d="m75 22.015v22c-.003 1.103-.897 1.997-2 2h-24c-.218-.001-.434-.038-.64-.11v-24.92h26.35c.191.31.291.666.29 1.03z" fill="#be927c"/><path d="m74.71 20.985h-26.35l-6.31-4.51c.364-.314.829-.488 1.31-.49h24c.416 0 .821.129 1.16.37l5.64 4.03c.226.157.414.362.55.6z" fill="#d3a997"/><path d="m48.36 32.015v13.89l-6.163-4.292-.838-1.627.001-6.001z" fill="#99705f"/><path d="m70.06 38.015v8h-21.06c-.218-.001-.434-.038-.64-.11v-13.89l.12-.03h13.52c.416 0 .821.129 1.16.37l6.06 4.03c.527.375.84.983.84 1.63z" fill="#a87e6b"/><path d="m74.709 20.976v.01h-26.35l-6.37-4.44c.307-.271.679-.457 1.08-.54.096-.012.193-.018.29-.02 0 0 4 4.03 6 4.03.26 0 18.55.45 21.45-.05.69-.12-2.68-3.21-3.45-3.98.416 0 .821.129 1.16.37l5.64 4.03c.223.156.41.357.55.59z" fill="#be927c"/><path d="m49.359 46.016s-1.237-24 1-24c8 0 24.35-1 24.35-1l-26.35-.03v24.92z" fill="#c49986"/><path d="m48.359 20.986v24.92s-1-.15-1-.6v-23.29c0-1.52-4.07-2.47-6-2.83v-1.2c-.004-.548.225-1.071.63-1.44z" fill="#99705f"/><path d="m64.08 20.985h-3.43l-7.01-5h3.44z" fill="#374f68"/><path d="m55.359 27.015h-3c-.552 0-1-.448-1-1s.448-1 1-1h3c.552 0 1 .448 1 1s-.448 1-1 1z" fill="#374f68"/><path d="m.838 44.642 5.64 4.03c.339.242.746.372 1.163.372h27c1.105 0 2-.895 2-2v-20.029c0-.646-.312-1.252-.838-1.627l-5.641-4.03c-.339-.242-.745-.372-1.162-.372h-27c-1.105 0-2 .895-2 2v20.029c0 .646.312 1.252.838 1.627z" fill="#a87e6b"/><path d="m36.64 27.015v20.03c0 1.105-.895 2-2 2h-27c-.217-.002-.433-.036-.64-.1v-22.96h29.35c.191.31.291.666.29 1.03z" fill="#be927c"/><path d="m36.37 26.015-29.37-.03-6.31-4.51c.364-.314.829-.488 1.31-.49h27c.416 0 .821.129 1.16.37l5.64 4.03c.233.167.427.382.57.63z" fill="#d3a997"/><path d="m36.35 25.961v.01h-29.35l-6.37-4.44c.307-.271.679-.457 1.08-.54.096-.012.193-.018.29-.02 0 0 4 4.029 6 4.029.26 0 21.55.45 24.45-.05.69-.12-2.68-3.21-3.45-3.98.416 0 .821.129 1.16.37l5.64 4.03c.223.156.41.357.55.591z" fill="#be927c"/><path d="m8 49s-1.237-22 1-22c8 0 27.35-1 27.35-1l-29.35-.029v22.92z" fill="#c49986"/><path d="m7 25.971v22.92s-1-.15-1-.6v-21.291c0-1.52-4.07-2.47-6-2.83v-1.2c-.004-.548.225-1.071.63-1.44z" fill="#99705f"/><g fill="#374f68"><path d="m24.38 26.005-3.43-.01-7.03-5.01h3.43z"/><path d="m15.641 40.015h-3c-.552 0-1-.448-1-1s.448-1 1-1h3c.552 0 1 .448 1 1s-.448 1-1 1z"/><path d="m18.641 44.015h-6c-.552 0-1-.448-1-1s.448-1 1-1h6c.552 0 1 .448 1 1s-.448 1-1 1z"/></g><path d="m22.838 55.613 5.64 4.029c.339.243.746.373 1.163.373h35c1.105 0 2-.895 2-2v-18c0-.646-.312-1.252-.838-1.627l-5.641-4.03c-.339-.242-.745-.372-1.162-.372h-35c-1.105 0-2 .895-2 2v18c0 .646.312 1.252.838 1.627z" fill="#a87e6b"/><path d="m66.64 40.015v18c0 1.105-.895 2-2 2h-35c-.218-.001-.434-.038-.64-.11v-20.92h37.35c.191.31.291.666.29 1.03z" fill="#be927c"/><path d="m66.35 38.985h-37.35l-6.31-4.51c.364-.314.829-.488 1.31-.49h35c.416 0 .821.129 1.16.37l5.64 4.03c.226.157.414.362.55.6z" fill="#d3a997"/><path d="m66.35 38.975v.01h-37.35l-6.37-4.44c.307-.271.679-.457 1.08-.54.096-.012.193-.018.29-.02 0 0 4 4.03 6 4.03.26 0 29.55.45 32.45-.05.69-.12-2.68-3.21-3.45-3.98.416 0 .821.129 1.16.37l5.64 4.03c.223.156.41.357.55.59z" fill="#be927c"/><path d="m36 52.015h-3c-.552 0-1-.448-1-1s.448-1 1-1h3c.552 0 1 .448 1 1s-.448 1-1 1z" fill="#374f68"/><path d="m39 56.015h-6c-.552 0-1-.448-1-1s.448-1 1-1h6c.552 0 1 .448 1 1s-.448 1-1 1z" fill="#374f68"/><path d="m50.72 38.985h-3.43l-7-5h3.43z" fill="#374f68"/><path d="m30 60.015s-1.237-20 1-20c8 0 35.35-1 35.35-1l-37.35-.03v20.92z" fill="#c49986"/><path d="m29 38.985v20.92s-1-.15-1-.6v-19.29c0-1.52-4.07-2.47-6-2.83v-1.2c-.004-.548.225-1.071.63-1.44z" fill="#99705f"/></g></g></svg>