<svg height="512" viewBox="0 0 60 59" width="512" xmlns="http://www.w3.org/2000/svg"><g id="003---Time-Machine" fill="none"><path id="Shape" d="m16 50-4 5 2 1c2.67-1.33.86-.19 9-6l-4-1z" fill="#2c3e50"/><path id="Shape" d="m44 50 4 5-2 1c-2.67-1.33-.86-.19-9-6l4-1z" fill="#2c3e50"/><path id="Shape" d="m10.79 23.67-1.64-10.69 2.35-.98 5.5 11z" fill="#547580"/><path id="Shape" d="m49.21 23.67 1.64-10.69-2.35-.98-5.5 11z" fill="#547580"/><path id="Shape" d="m2.44 56.94c-4.66-4.16-2.28-13.57 6.21-24.55.34807056-.3974888.94529833-.4556194 1.3634877-.1327136.4181894.3229057.513025.9154143.2165123 1.3527136-7.67 9.92-10.23 18.49-6.46 21.83 1.34 1.2 3.41 1.71 6.16 1.52.5522847-.0386599 1.0313401.3777153 1.07.93s-.3777153 1.0313401-.93 1.07c-2.73.18-5.59-.21-7.63-2.02z" fill="#2c3e50"/><path id="Shape" d="m50.11 30c-.3769993.0009799-.7225085-.2101485-.8936387-.5460708-.1711303-.3359224-.1387929-.7395387.0836387-1.0439292 8.13-11.15 10.8-20.8 6.8-24.58-3.1-2.91-10.05-2.12-18.66 2.1-.3233242.1895721-.7255093.1824296-1.0418984-.01850332-.3163892-.20093292-.4938561-.56191686-.4597449-.93516279.0341113-.37324593.2740729-.69608074.6216433-.83633389 22.73-11.14 31.44 1.98 14.36 25.45-.1888314.2584142-.4899461.4108303-.81.41z" fill="#2c3e50"/><path id="Shape" d="m49.93 59c-.3572656-.0250086-.6740507-.2387164-.8310255-.5606218-.1569747-.3219053-.1302908-.7031032.0700001-1 .2002908-.2968968.5437598-.4643868.9010254-.4393782 2.74.19 4.82-.32 6.16-1.52 3.77-3.38 1.21-11.95-6.46-21.87-.2965127-.4372993-.2016771-1.0298079.2165123-1.3527136.4181894-.3229058 1.0154171-.2647752 1.3634877.1327136 8.49 11 10.87 20.39 6.21 24.55-2.04 1.81-4.91 2.2-7.63 2.06z" fill="#2c3e50"/><path id="Shape" d="m9.49 30c-.32722364-.0005385-.63348272-.1611378-.82-.43-16.67-23.95-7.51-36.38 13.79-25.42.3438302.14835393.5759609.47637451.6015014.84997291s-.15979.73015808-.4802316.92392394c-.3204417.19376587-.7222874.192262-1.0412698-.00389685-8.18-4.21-14.8-5-17.72-2.11-3.82 3.79-1.28 13.46 6.49 24.62.2119392.3055055.2368755.7033761.0647397 1.0329532-.1721359.3295771-.5129179.5364356-.8847397.5370468z" fill="#2c3e50"/><path id="Shape" d="m19 23-2 27h-4c-2.209139 0-4-1.790861-4-4v-19c0-2.209139 1.790861-4 4-4z" fill="#e57e25"/><path id="Shape" d="m51 27v19c0 2.209139-1.790861 4-4 4h-4l-2-27h6c2.209139 0 4 1.790861 4 4z" fill="#e57e25"/><path id="Shape" d="m18 44c0 .5522847-.4477153 1-1 1h-8v-2h8c.5522847 0 1 .4477153 1 1z" fill="#d25627"/><path id="Shape" d="m51 43v2h-8c-.5522847 0-1-.4477153-1-1s.4477153-1 1-1z" fill="#d25627"/><path id="Shape" d="m36 50v3c0 1.1045695-.8954305 2-2 2h-8c-1.1045695 0-2-.8954305-2-2v-5z" fill="#35495e"/><path id="Shape" d="m43 14v36h-26v-36c0-7.17970175 5.8202983-13 13-13s13 5.82029825 13 13z" fill="#f0c419"/><rect id="Rectangle-path" fill="#547580" height="4" rx="1" width="9" x="9" y="55"/><rect id="Rectangle-path" fill="#547580" height="4" rx="1" transform="matrix(-1 0 0 -1 93 114)" width="9" x="42" y="55"/><circle id="Oval" cx="30" cy="14" fill="#d25627" r="9"/><circle id="Oval" cx="30" cy="12" fill="#fdd7ad" r="3"/><circle id="Oval" cx="9.5" cy="10.5" fill="#2c3e50" r="2.5"/><circle id="Oval" cx="50.5" cy="10.5" fill="#2c3e50" r="2.5"/><path id="Shape" d="m23 25c0 .5522847-.4477153 1-1 1h-5v-2h5c.5522847 0 1 .4477153 1 1z" fill="#f29c1f"/><path id="Shape" d="m43 24v2h-5c-.5522847 0-1-.4477153-1-1s.4477153-1 1-1z" fill="#f29c1f"/><circle id="Oval" cx="30" cy="37" fill="#2fa8cc" r="9"/><g fill="#285680"><path id="Shape" d="m30 47c-4.2057617.0023908-7.9635422-2.6270112-9.4023263-6.5790154-1.4387842-3.9520041-.2510413-8.3818953 2.9718464-11.0840115s7.7920488-3.0988976 11.4324784-.9927851c3.6404295 2.1061125 5.5740092 6.264951 4.8380015 10.405812-.0938884.5522847-.6177153.9238884-1.17.83s-.9238884-.6177153-.83-1.17c.7031572-3.9728268-1.6620175-7.8475378-5.5169447-9.0380498-3.8549273-1.190512-7.9930889.6757825-9.6525679 4.3532698-1.6594789 3.6774872-.3208901 8.0151844 3.1223574 10.1179992 3.4432474 2.1028147 7.9134832 1.3126065 10.4271552-1.8432192.2190593-.2915983.5794982-.4408109.9405667-.3893711.3610685.0514399.6654975.2953734.7944088.6365455.1289112.3411722.0618581.7254695-.1749755 1.0028256-1.8836005 2.3737412-4.7497243 3.7552276-7.78 3.75z"/><path id="Shape" d="m37 46c-.5522847 0-1-.4477153-1-1v-2h-2c-.5522847 0-1-.4477153-1-1s.4477153-1 1-1h3c.5522847 0 1 .4477153 1 1v3c0 .5522847-.4477153 1-1 1z"/><path id="Shape" d="m30 31c-.5522847 0-1-.4477153-1-1v-2c0-.5522847.4477153-1 1-1s1 .4477153 1 1v2c0 .5522847-.4477153 1-1 1z"/><path id="Shape" d="m30 47c-.5522847 0-1-.4477153-1-1v-2c0-.5522847.4477153-1 1-1s1 .4477153 1 1v2c0 .5522847-.4477153 1-1 1z"/><path id="Shape" d="m39 38h-2c-.5522847 0-1-.4477153-1-1s.4477153-1 1-1h2c.5522847 0 1 .4477153 1 1s-.4477153 1-1 1z"/><path id="Shape" d="m23 38h-2c-.5522847 0-1-.4477153-1-1s.4477153-1 1-1h2c.5522847 0 1 .4477153 1 1s-.4477153 1-1 1z"/><path id="Shape" d="m30 38c-.41 0-.28 0-3.55-2.17-.4021248-.3239123-.4915129-.9007244-.206288-1.3311547s.8512619-.5729246 1.306288-.3288453l2.32 1.54 3.42-3.42c.3921222-.3921221 1.0278778-.3921221 1.42 0 .3921221.3921222.3921221 1.0278778 0 1.42l-4 4c-.1887188.1871865-.444197.2915368-.71.29z"/></g><path id="Shape" d="m35 20v1.48c-3.0266221 2.022247-6.9733779 2.022247-10 0v-1.48c0-2.7614237 2.2385763-5 5-5s5 2.2385763 5 5z" fill="#f29c1f"/></g></svg>